<svg version="1.1" id="Layer_1" xmlns="http://www.w3.org/2000/svg" xmlns:xlink="http://www.w3.org/1999/xlink" x="0px" y="0px"
	 width="100%" viewBox="0 0 512 512" enable-background="new 0 0 512 512" xml:space="preserve">
<path fill="#FFFFFF" opacity="1.000000" stroke="none" 
	d="
M15.468657,513.000000 
	C16.633535,468.083954 37.528065,432.663879 70.003120,403.385986 
	C106.033119,370.903168 148.943466,352.547821 196.635162,346.121460 
	C245.557907,339.529236 294.588501,339.219543 342.944366,351.082397 
	C386.831787,361.849091 425.458771,382.380707 456.568848,415.682312 
	C477.906525,438.523102 492.697113,464.899658 497.466339,496.222290 
	C498.265839,501.473083 498.415161,506.822906 498.932434,512.563477 
	C337.979095,513.000000 176.958206,513.000000 15.468657,513.000000 
z"/>
<path fill="#FFFFFF" opacity="1.000000" stroke="none" 
	d="
M313.800354,298.828308 
	C251.408386,340.137115 167.667114,303.301392 155.894623,229.684174 
	C146.535294,171.157089 188.769180,117.044548 247.856049,111.857811 
	C303.181030,107.001297 352.509979,146.367645 358.492157,201.572388 
	C362.895172,242.204346 347.378296,274.733765 313.800354,298.828308 
z"/>
</svg>